<?xml version="1.0" encoding="UTF-8"?>
<svg id="Layer_1" data-name="Layer 1" xmlns="http://www.w3.org/2000/svg" viewBox="0 0 411.25 474.25">
  <defs>
    <style>
      .cls-1 {
        fill: none;
        stroke: #000;
        stroke-miterlimit: 10;
        stroke-width: .25px;
      }
    </style>
  </defs>
  <path class="cls-1" d="m.125,474.125V.125h411v474H.125ZM87.402,182.73c4.492,10.516,11.727,18.158,23.014,21.17,3.738.998,7.637,1.15,2.327,6.029h9.914c-1.436-1.187-2.083-1.555-2.489-2.102-.443-.598-.662-1.361-1.111-2.34,24.818-6.057,32.119-23.684,31.652-46.544,15.602-5.552,23.446-17.488,25.202-33.325,1.983-17.884-3.84-32.71-18.534-41.76.935-8.747,3.015-17,2.464-25.073-1.874-27.448-28.879-47.122-53.241-27.742-8.378-8.909-14.599-12.456-22.778-12.983-14.977-.966-28.47,9.053-33.363,25.535-1.772,5.968-2.093,12.367-3.096,18.696-16.042,2.02-27.243,12.215-31.241,28.766-4.804,19.888,2.041,36.688,19.781,48.85-3.005,25.261,3.355,44.935,30.741,52.428-1.016,1.635-1.771,2.851-2.609,4.2h9.315c-1.145-1.8-1.926-3.028-2.864-4.503,3.545-1.109,6.777-1.586,9.421-3.094,2.825-1.611,5.095-4.195,7.608-6.354l-.111.145Zm305.059,272.97c0-5.329-.904-10.646.183-15.518,2.468-11.061-1.29-20.547-5.83-30.051-.359-.751-.559-1.623-1.065-2.251-7.517-9.313-6.966-19.167-4.357-30.439,3.646-15.752,1.939-31.461-7.593-45.532-1.847-2.727-3.226-6.13-3.683-9.381-2.876-20.458-18.533-30.543-38.231-24.334-2.54.801-5.08,1.602-7.611,2.428-6.965,2.274-13.714,1.816-20.438-1.149-5.141-2.266-10.456-4.136-15.805-6.225,0,5.04.246,9.683-.069,14.288-.317,4.647-.286,9.555-4.679,14.045.767-16.118,4.707-32.421-13.023-41.734-.344,1.987-.4,4.334-1.174,6.414-2.703,7.263-4.998,14.793-8.696,21.538-3.697,6.743-8.845,12.7-13.445,18.936-3.656,4.956-7.009,10.241-11.29,14.601-4.971,5.063-6.826,10.813-6.633,17.581.071,2.497,0,5.005.204,7.491,1.758,21.337,14.473,35.513,34.218,38.222,26.896,3.689,58.311-15.19,67.512-40.573,3.311-9.133,7.876-15.814,13.346-19.018-10.271,14.964-10.732,30.827-7.224,47.368,3.013,14.21,5.631,28.503,8.489,43.09-4.766,3.98-9.791,8.358-15.024,12.472-2.798,2.199-3.321,4.592-2.112,7.731h64.031Zm-256.389-.543c15.356,0,30.338.034,45.319-.067,1.149-.008,2.544-.703,3.394-1.524,4.282-4.134,4.819-9.751.893-14.542-1.962-2.395-1.337-3.948.338-5.52,2.052-1.927,4.513-3.415,6.58-5.328,5.702-5.277,12.252-9.991,16.684-16.201,5.651-7.918,9.599-17.059,14.191-25.721,2.074-3.913,2.596-7.812,1.238-12.378-1.201-4.035-1.197-8.574-.989-12.855.473-9.757,3.98-18.129,10.624-25.699,17.504-19.943,28.719-42.856,29.562-69.895.546-17.496-9.566-26.24-26.929-23.878-11.104,1.511-21.171,5.743-30.513,11.779-21.585,13.946-30.343,36.692-23.542,61.524.772,2.819.216,4.574-1.64,6.631-10.047,11.136-20.025,22.336-29.858,33.661-1.544,1.779-2.711,4.197-3.23,6.504-4.239,18.845-8.285,37.733-12.385,56.609-2.657,12.233-1.823,24.407.265,36.898Zm26.348-214.799q-5.644,11.569-16.506,8.822c-.323-.082-.726-.341-.954-.232-2.931,1.413-8.056,2.586-8.294,4.391-.523,3.973-2.262,6.63-4.461,9.54-1.182,1.564-1.572,3.727-2.837,6.929,9.221-3.692,8.581,4.055,11.377,8.531,1.217-3.436,2.118-5.979,3.472-9.802,3.641,5.372,6.542,9.653,9.899,14.606-7.986-.127-15.827,2.06-18.433-9.693-1.442,3.915-2.198,5.968-2.973,8.073-3.043-1.105-5.755-2.089-9.6-3.485,2.035,8.273,3.815,15.507,5.595,22.741.854,3.467,3.363,4.452,6.481,3.897,5.4-.963,10.782-2.068,16.12-3.333,4.14-.981,8.2-2.295,12.296-3.461.206.445.411.89.617,1.336-5.758,2.99-11.517,5.98-17.61,9.145,3.785,10.124,7.447,19.918,11.356,30.375,6.697-7.964,12.765-15.044,18.623-22.292.873-1.081,1.312-3.066,1.03-4.444-4.479-21.881,2.42-40.058,17.924-55.4,9.494-9.395,20.937-15.831,33.1-21.089,1.585-.685,3.159-1.399,5.638-2.499-16.692-10.833-29.737-24.088-41.855-38.361-.812-.956-3.062-1.62-4.22-1.214-14.053,4.928-26.308,12.527-33.458,26.076-3.039,5.758-5.59,11.484-11.459,14.962-1.077.638-2.103,1.872-2.498,3.05-.903,2.698-1.401,5.531-2.064,8.309,2.549-.213,5.186-.083,7.628-.71,5.407-1.388,10.716-3.156,16.065-4.769Zm-22.369,125.936c1.717-4.303,2.168-9.116,4.806-11.389,9.958-8.579,10.352-17.671,3.518-28.045-.717-1.089-.823-2.59-1.568-3.648-1.099-1.561-2.338-3.132-3.837-4.282-3.813-2.925-7.669-5.841-11.769-8.329-2.877-1.746-6.072-3.242-9.323-4.039-6.581-1.613-13.259-2.976-19.975-3.838-3.488-.448-7.729-.655-10.559.935-2.972,1.671-4.781,5.542-6.835,8.627-.539.81-.249,2.292-.085,3.429.762,5.281,1.307,10.622,2.533,15.798.897,3.786-.573,9.169,5.336,10.367,6.629,1.345,13.332,2.341,19.934,3.799,2.313.511,4.727,1.562,6.571,3.026,7.139,5.669,14.067,11.604,21.252,17.589Zm189.134,9.366c-1.161,1.562-1.935,2.611-2.717,3.655-10.656,14.229-24.14,24.393-41.922,27.476-4.635.804-6.779,2.386-7.319,6.762-1.659,13.447-7.793,23.557-21.161,28.258-.591.208-1.069.739-2.739,1.937,1.86,1.616,3.395,4.113,4.972,4.14,16.793.284,33.593.176,50.436.176,1.168-3.372,1.768-6.786,3.421-9.575,5.933-10.013,5.875-20.09,1.247-30.449-.121-.271-.015-.643-.015-.968,5.899-3.752,11.052-8.27,15.961-13.042,1.051-1.021,1.78-2.999,1.675-4.465-.317-4.402-1.12-8.769-1.839-13.906Z"/>
  <path class="cls-1" d="m87.513,182.584c-2.513,2.159-4.783,4.743-7.608,6.354-2.644,1.508-5.877,1.985-9.421,3.094.938,1.475,1.719,2.703,2.864,4.503h-9.315c.838-1.349,1.593-2.565,2.609-4.2-27.386-7.493-33.746-27.167-30.741-52.428-17.74-12.162-24.585-28.962-19.781-48.85,3.998-16.552,15.199-26.746,31.241-28.766,1.003-6.329,1.325-12.728,3.096-18.696,4.893-16.482,18.386-26.501,33.363-25.535,8.179.528,14.4,4.074,22.778,12.983,24.362-19.38,51.367.294,53.241,27.742.551,8.073-1.528,16.326-2.464,25.073,14.694,9.05,20.518,23.876,18.534,41.76-1.756,15.837-9.601,27.772-25.202,33.325.467,22.86-6.834,40.487-31.652,46.544.449.979.668,1.743,1.111,2.34.406.547,1.053.915,2.489,2.102h-9.914c5.31-4.879,1.412-5.031-2.327-6.029-11.287-3.013-18.522-10.655-23.027-21.155-7.065-18.524-3.96-35.178,9.236-49.784-1.302-2.039-2.479-4.01-3.779-5.897-12.651-18.366-36.271-18.301-48.763.165-7.025,10.385-8.686,21.958-6.033,33.91,3.269,14.721,11.343,25.323,27.176,28.363,1.463.281,2.637,2.07,3.274,2.6.838-.708,1.858-2.001,3.191-2.618,5.22-2.416,10.539-4.619,15.822-6.902Zm28.568,18.121c-14.342-8.65-21.035-20.918-21.008-36.713.027-15.695,6.78-27.866,21.435-36.73-17.824,4.019-28.908,19.38-28.572,37.921.316,17.426,11.953,32.534,28.145,35.522ZM46.55,65.315c-13.197,1.715-24.504,14.221-27.193,29.208-2.944,16.407,4.742,33.326,18.925,39.983-.106-1.508-.451-3.014-1.352-4.019-9.58-10.684-12.639-23.215-10.239-37.091,2.089-12.078,8.604-21.386,19.86-28.082Zm34.045-45.099c-15.566,3.638-25.713,15.443-28.133,31.681-1.803,12.095,3.434,29.369,16.015,35.92-.367-2.37-1.081-4.607-2.069-6.716-1.266-2.701-3.011-5.195-4.105-7.955-7.798-19.672-1.32-38.843,18.292-52.93Zm2.179,94.119c-4.614-10.264-5.655-20.637-2.637-31.315,3.001-10.618,9.363-18.677,20.094-24.767-1.894.252-2.382.254-2.832.386-18.349,5.395-29.053,24.373-25.265,44.618,1.095,5.851,2.924,10.87,10.64,11.078Zm25.692-80.489c1.151,2.162,1.895,3.559,2.439,4.58,4.466-4.165,8.769-8.179,13.072-12.193-.172-.293-.345-.586-.517-.879-4.922,2.788-9.844,5.576-14.994,8.492Z"/>
  <path class="cls-1" d="m392.461,455.7h-64.031c-1.209-3.138-.686-5.531,2.112-7.731,5.233-4.114,10.259-8.493,15.024-12.472-2.858-14.587-5.475-28.881-8.489-43.09-3.508-16.541-3.047-32.404,7.224-47.368-5.47,3.203-10.035,9.885-13.346,19.018-9.202,25.382-40.616,44.262-67.512,40.573-19.745-2.708-32.459-16.884-34.218-38.222-.205-2.486-.133-4.993-.204-7.491-.193-6.768,1.662-12.517,6.633-17.581,4.281-4.36,7.634-9.646,11.29-14.601,4.601-6.236,9.748-12.193,13.445-18.936,3.698-6.745,5.993-14.275,8.696-21.538.774-2.08.83-4.427,1.174-6.414,17.73,9.313,13.79,25.615,13.023,41.734,4.393-4.489,4.362-9.398,4.679-14.045.314-4.605.069-9.248.069-14.288,5.349,2.089,10.665,3.959,15.805,6.225,6.725,2.965,13.473,3.423,20.438,1.149,2.531-.827,5.071-1.628,7.611-2.428,19.698-6.209,35.355,3.875,38.231,24.334.457,3.251,1.836,6.654,3.683,9.381,9.532,14.071,11.239,29.779,7.593,45.532-2.609,11.272-3.16,21.125,4.357,30.439.507.628.707,1.5,1.065,2.251,4.539,9.504,8.297,18.99,5.83,30.051-1.087,4.873-.183,10.19-.183,15.518Z"/>
  <path class="cls-1" d="m136.072,455.157c-2.088-12.491-2.922-24.665-.265-36.898,4.1-18.876,8.146-37.764,12.385-56.609.519-2.307,1.686-4.726,3.23-6.504,9.833-11.324,19.811-22.524,29.858-33.661,1.856-2.057,2.412-3.812,1.64-6.631-6.801-24.832,1.957-47.578,23.542-61.524,9.343-6.036,19.41-10.269,30.513-11.779,17.363-2.362,27.475,6.382,26.929,23.878-.844,27.039-12.058,49.952-29.562,69.895-6.644,7.57-10.151,15.942-10.624,25.699-.207,4.281-.211,8.819.989,12.855,1.358,4.566.837,8.464-1.238,12.378-4.592,8.662-8.54,17.804-14.191,25.721-4.432,6.209-10.982,10.923-16.684,16.201-2.067,1.913-4.528,3.402-6.58,5.328-1.675,1.572-2.3,3.125-.338,5.52,3.926,4.791,3.389,10.408-.893,14.542-.85.821-2.245,1.516-3.394,1.524-14.981.101-29.964.067-45.319.067Z"/>
  <path class="cls-1" d="m162.42,240.358c-5.349,1.613-10.658,3.381-16.065,4.769-2.443.627-5.079.497-7.628.71.663-2.778,1.161-5.611,2.064-8.309.394-1.178,1.421-2.411,2.498-3.05,5.869-3.479,8.42-9.204,11.459-14.962,7.15-13.549,19.405-21.148,33.458-26.076,1.158-.406,3.408.257,4.22,1.214,12.118,14.273,25.162,27.529,41.855,38.361-2.479,1.1-4.052,1.813-5.638,2.499-12.163,5.258-23.606,11.694-33.1,21.089-15.504,15.342-22.403,33.519-17.924,55.4.282,1.378-.157,3.363-1.03,4.444-5.859,7.248-11.926,14.328-18.623,22.292-3.909-10.457-7.571-20.251-11.356-30.375,6.093-3.164,11.851-6.154,17.61-9.145-.206-.445-.411-.89-.617-1.336-4.096,1.166-8.156,2.48-12.296,3.461-5.338,1.264-10.719,2.37-16.12,3.333-3.117.556-5.627-.429-6.481-3.897-1.781-7.234-3.56-14.468-5.595-22.741,3.845,1.396,6.557,2.38,9.6,3.485.775-2.105,1.531-4.158,2.973-8.073,2.605,11.752,10.447,9.566,18.433,9.693-3.357-4.954-6.258-9.234-9.899-14.606-1.354,3.823-2.255,6.366-3.472,9.802-2.796-4.476-2.156-12.223-11.377-8.531,1.265-3.202,1.655-5.365,2.837-6.929,2.199-2.91,3.938-5.567,4.461-9.54.238-1.805,5.363-2.978,8.294-4.391.228-.11.631.15.954.232q10.862,2.747,16.506-8.822Z"/>
  <path class="cls-1" d="m140.051,366.294c-7.185-5.985-14.113-11.92-21.252-17.589-1.844-1.464-4.258-2.515-6.571-3.026-6.602-1.459-13.304-2.455-19.934-3.799-5.909-1.199-4.439-6.581-5.336-10.367-1.226-5.176-1.772-10.517-2.533-15.798-.164-1.137-.454-2.619.085-3.429,2.053-3.085,3.863-6.956,6.835-8.627,2.829-1.591,7.071-1.383,10.559-.935,6.716.863,13.393,2.226,19.975,3.838,3.251.797,6.446,2.293,9.323,4.039,4.1,2.488,7.956,5.404,11.769,8.329,1.499,1.15,2.738,2.721,3.837,4.282.746,1.059.851,2.56,1.568,3.648,6.834,10.374,6.44,19.466-3.518,28.045-2.639,2.273-3.089,7.086-4.806,11.389Z"/>
  <path class="cls-1" d="m329.185,375.659c.719,5.137,1.522,9.504,1.839,13.906.106,1.466-.624,3.444-1.675,4.465-4.908,4.771-10.062,9.29-15.961,13.042,0,.325-.106.697.015.968,4.628,10.359,4.686,20.435-1.247,30.449-1.653,2.789-2.253,6.203-3.421,9.575-16.844,0-33.643.108-50.436-.176-1.577-.027-3.112-2.524-4.972-4.14,1.67-1.198,2.147-1.729,2.739-1.937,13.368-4.701,19.501-14.811,21.161-28.258.54-4.376,2.684-5.959,7.319-6.762,17.782-3.083,31.266-13.247,41.922-27.476.782-1.044,1.556-2.093,2.717-3.655Z"/>
  <path class="cls-1" d="m87.513,182.584c-5.282,2.282-10.602,4.485-15.822,6.902-1.333.617-2.352,1.91-3.191,2.618-.637-.53-1.811-2.32-3.274-2.6-15.834-3.04-23.908-13.642-27.176-28.363-2.654-11.952-.993-23.525,6.033-33.91,12.492-18.466,36.112-18.53,48.763-.165,1.3,1.887,2.476,3.858,3.779,5.897-13.196,14.606-16.301,31.259-9.236,49.784.013-.015.125-.161.125-.161Z"/>
  <path class="cls-1" d="m116.081,200.705c-16.192-2.988-27.828-18.096-28.145-35.522-.337-18.541,10.748-33.903,28.572-37.921-14.655,8.865-21.408,21.035-21.435,36.73-.027,15.795,6.666,28.063,21.008,36.713Z"/>
  <path class="cls-1" d="m46.55,65.315c-11.256,6.696-17.772,16.004-19.86,28.082-2.4,13.877.66,26.407,10.239,37.091.902,1.006,1.246,2.511,1.352,4.019-14.183-6.658-21.869-23.576-18.925-39.983,2.689-14.987,13.996-27.493,27.193-29.208Z"/>
  <path class="cls-1" d="m80.595,20.215c-19.612,14.087-26.09,33.258-18.292,52.93,1.094,2.76,2.838,5.254,4.105,7.955.989,2.109,1.702,4.346,2.069,6.716-12.581-6.551-17.817-23.825-16.015-35.92,2.42-16.238,12.567-28.043,28.133-31.681Z"/>
  <path class="cls-1" d="m82.773,114.334c-7.716-.209-9.545-5.227-10.64-11.078-3.788-20.245,6.915-39.223,25.265-44.618.45-.132.938-.134,2.832-.386-10.73,6.09-17.092,14.149-20.094,24.767-3.018,10.679-1.977,21.051,2.637,31.315Z"/>
  <path class="cls-1" d="m108.466,33.845c5.15-2.917,10.072-5.704,14.994-8.492.172.293.345.586.517.879-4.303,4.014-8.607,8.027-13.072,12.193-.544-1.021-1.288-2.418-2.439-4.58Z"/>
</svg>